<svg xmlns="http://www.w3.org/2000/svg" viewBox="0 0 720 220" role="img" aria-labelledby="title desc">
  <title id="title">Werbos speech coach logo</title>
  <desc id="desc">Werbos wordmark with a speech bubble icon and Zorrito ear detail.</desc>
  <path fill="#d95d4f" d="M66 42h26l18 34H76zm72 0h26l-10 34h-34z"/>
  <path fill="#f8f4ed" stroke="#202124" stroke-width="10" d="M46 74h148a28 28 0 0 1 28 28v52a28 28 0 0 1-28 28h-67l-45 28v-28H46a28 28 0 0 1-28-28v-52a28 28 0 0 1 28-28z"/>
  <path fill="#28745d" d="M54 112h28l15 42 18-42h22l18 42 15-42h28l-31 56h-24l-17-35-17 35H85z"/>
  <circle cx="98" cy="96" r="6" fill="#202124"/>
  <circle cx="150" cy="96" r="6" fill="#202124"/>
  <text x="260" y="128" fill="#202124" font-family="Inter, Arial, sans-serif" font-size="76" font-weight="900" letter-spacing="6">WERBOS</text>
  <text x="264" y="172" fill="#28745d" font-family="Inter, Arial, sans-serif" font-size="21" font-weight="800" letter-spacing="5">PRACTICE SPANISH VERBS</text>
</svg>
