<svg xmlns="http://www.w3.org/2000/svg" viewBox="0 0 180 160" role="img" aria-labelledby="title desc">
  <title id="title">Zorrito speech coach mascot</title>
  <desc id="desc">A fox mascot beside a small teaching speech bubble.</desc>
  <path fill="#f1c76b" d="M24 56 46 20l24 32h8l24-32 22 36-10 54-40 28-40-28z"/>
  <path fill="#d95d4f" d="m46 20 24 32H29zm56 0L78 52h43z"/>
  <path fill="#fffaf0" d="M44 84c9 25 22 40 30 40s21-15 30-40c-18 10-42 10-60 0z"/>
  <circle cx="56" cy="72" r="7" fill="#202124"/>
  <circle cx="92" cy="72" r="7" fill="#202124"/>
  <path fill="#202124" d="m66 96 8 8 8-8c-4-4-12-4-16 0z"/>
  <path fill="none" stroke="#202124" stroke-linecap="round" stroke-width="6" d="M58 112c10 8 22 8 32 0"/>
  <path fill="#d8edf3" stroke="#202124" stroke-width="6" d="M118 42h38a14 14 0 0 1 14 14v28a14 14 0 0 1-14 14h-14l-20 18V98h-4a14 14 0 0 1-14-14V56a14 14 0 0 1 14-14z"/>
  <path fill="#28745d" d="M124 63h38v8h-38zm0 18h26v8h-26z"/>
</svg>
